<svg width="1980" height="1080" viewBox="0 0 1980 1080" fill="none" xmlns="http://www.w3.org/2000/svg">
    <g clip-path="url(#clip0_1_3)">
        <path d="M0 0H1980V1080H0V0Z" fill="#73B1D6"/>
        <path d="M344.569 690C317.007 662.1 300 623.806 300 581.55C300 496.195 369.395 427 455 427C540.605 427 610 496.194 610 581.55L490.64 490.96L344.569 690Z" fill="#FDC858"/>
        <path d="M455.341 383.71V400.456M455.341 352.555V370.08M455.341 314V336.978M421.183 386.703L424.086 403.194M415.779 356.02L418.818 373.279M409.092 318.052L413.077 340.68M388.061 395.588L393.781 411.324M377.418 366.312L383.405 382.78M364.248 330.083L372.096 351.674M356.983 410.098L365.346 424.6M341.425 383.117L350.177 398.293M322.171 349.727L333.646 369.626M328.895 429.79L339.646 442.617M308.893 405.923L320.144 419.348M284.14 376.388L298.893 393.99M304.649 454.066L317.46 464.83M280.811 434.039L294.22 445.304M251.312 409.257L268.892 424.027M284.98 482.188L299.465 490.561M258.031 466.611L273.19 475.373M224.683 447.333L244.557 458.822M270.489 513.304L286.205 519.031M241.249 502.647L257.696 508.642M205.063 489.461L226.628 497.32M261.614 546.465L278.085 549.373M230.969 541.055L248.206 544.098M193.047 534.36L215.647 538.35M258.626 580.666H275.351M227.508 580.666H245.011M189 580.666H211.95M261.614 614.867L278.085 611.96M230.969 620.278L248.206 617.235M193.047 626.973L215.647 622.982M270.489 648.029L286.205 642.302M241.249 658.684L257.696 652.691M205.063 671.872L226.628 664.013M284.98 679.145L299.465 670.772M258.031 694.722L273.19 685.96M224.683 714L244.557 702.511M640.194 513.304L624.477 519.031M669.435 502.647L652.988 508.642M625.703 482.188L611.219 490.561M652.651 466.611L637.493 475.373M686 447.333L666.125 458.822M606.035 454.066L593.222 464.83M629.873 434.039L616.464 445.304M659.371 409.257L641.791 424.027M581.788 429.79L571.038 442.617M601.79 405.923L590.539 419.348M626.542 376.388L611.791 393.99M553.699 410.098L545.338 424.6M569.258 383.117L560.507 398.293M588.512 349.727L577.038 369.626M522.623 395.588L516.903 411.324M533.265 366.312L527.279 382.78M546.436 330.083L538.586 351.674M489.501 386.703L486.596 403.194M494.904 356.02L491.865 373.279M501.591 318.052L497.606 340.68" stroke="#4589B0" stroke-width="8" stroke-miterlimit="10" stroke-linecap="round" stroke-linejoin="round"/>
        <path d="M719.462 962H632M855.658 962H730.445M1082.23 962H1070.86M1147.51 962H1093.16M1161 962H1156.92" stroke="#1D628B" stroke-width="8" stroke-miterlimit="10" stroke-linecap="round" stroke-linejoin="round"/>
        <path d="M1621.46 962H1534M1757.66 962H1632.45M1984.23 962H1972.86M2049.51 962H1995.16M2063 962H2058.92" stroke="#1D628B" stroke-width="8" stroke-miterlimit="10" stroke-linecap="round" stroke-linejoin="round"/>
        <path d="M483.296 962H396M619.235 962H494.259M845.381 962H834.027M910.531 962H856.29M924 962H919.928" stroke="#1D628B" stroke-width="8" stroke-miterlimit="10" stroke-linecap="round" stroke-linejoin="round"/>
        <path d="M208.296 961.97H121M344.235 961.97H219.259M570.381 961.97H559.027M635.531 961.97H581.29M649 961.97H644.928" stroke="#1D628B" stroke-width="8" stroke-miterlimit="10" stroke-linecap="round" stroke-linejoin="round"/>
        <path d="M1385.3 962H1298M1521.23 962H1396.26M1747.38 962H1736.03M1812.53 962H1758.29M1826 962H1821.93" stroke="#1D628B" stroke-width="8" stroke-miterlimit="10" stroke-linecap="round" stroke-linejoin="round"/>
        <path d="M493.296 962H406M629.235 962H504.259M855.381 962H844.027M920.531 962H866.29M934 962H929.928" stroke="#1D628B" stroke-width="8" stroke-miterlimit="10" stroke-linecap="round" stroke-linejoin="round"/>
        <path d="M218.296 961.97H131M354.235 961.97H229.259M580.381 961.97H569.027M645.531 961.97H591.29M659 961.97H654.928" stroke="#1D628B" stroke-width="8" stroke-miterlimit="10" stroke-linecap="round" stroke-linejoin="round"/>
        <path d="M1395.3 962H1308M1531.23 962H1406.26M1757.38 962H1746.03M1822.53 962H1768.29M1836 962H1831.93" stroke="#1D628B" stroke-width="8" stroke-miterlimit="10" stroke-linecap="round" stroke-linejoin="round"/>
        <path d="M516.296 962H429M652.235 962H527.259M878.381 962H867.027M943.531 962H889.29M957 962H952.928" stroke="#1D628B" stroke-width="8" stroke-miterlimit="10" stroke-linecap="round" stroke-linejoin="round"/>
        <path d="M1418.3 962H1331M1554.23 962H1429.26M1780.38 962H1769.03M1845.53 962H1791.29M1859 962H1854.93" stroke="#1D628B" stroke-width="8" stroke-miterlimit="10" stroke-linecap="round" stroke-linejoin="round"/>
        <path d="M643.296 962H556M779.235 962H654.259M1005.38 962H994.027M1070.53 962H1016.29M1084 962H1079.93" stroke="#1D628B" stroke-width="8" stroke-miterlimit="10" stroke-linecap="round" stroke-linejoin="round"/>
        <path d="M1545.3 962H1458M1681.23 962H1556.26M1907.38 962H1896.03M1972.53 962H1918.29M1986 962H1981.93" stroke="#1D628B" stroke-width="8" stroke-miterlimit="10" stroke-linecap="round" stroke-linejoin="round"/>
        <path d="M616.296 962H529M752.235 962H627.259M978.381 962H967.027M1043.53 962H989.29M1057 962H1052.93" stroke="#1D628B" stroke-width="8" stroke-miterlimit="10" stroke-linecap="round" stroke-linejoin="round"/>
        <path d="M1518.3 962H1431M1654.23 962H1529.26M1880.38 962H1869.03M1945.53 962H1891.29M1959 962H1954.93" stroke="#1D628B" stroke-width="8" stroke-miterlimit="10" stroke-linecap="round" stroke-linejoin="round"/>
        <path d="M362.296 962H275M498.235 962H373.259M724.381 962H713.027M789.531 962H735.29M803 962H798.928" stroke="#1D628B" stroke-width="8" stroke-miterlimit="10" stroke-linecap="round" stroke-linejoin="round"/>
        <path d="M87.2963 961.97H0M223.235 961.97H98.2591M449.381 961.97H438.027M514.531 961.97H460.29M528 961.97H523.928" stroke="#1D628B" stroke-width="8" stroke-miterlimit="10" stroke-linecap="round" stroke-linejoin="round"/>
        <path d="M1264.3 962H1177M1400.23 962H1275.26M1626.38 962H1615.03M1691.53 962H1637.29M1705 962H1700.93" stroke="#1D628B" stroke-width="8" stroke-miterlimit="10" stroke-linecap="round" stroke-linejoin="round"/>
        <path d="M257 808L491.794 490L623 590.725" stroke="#4589B0" stroke-width="8" stroke-miterlimit="10" stroke-linecap="round" stroke-linejoin="round"/>
        <path d="M564 671.271L731.484 445L1016 702" stroke="#4589B0" stroke-width="8" stroke-miterlimit="10" stroke-linecap="round" stroke-linejoin="round"/>
        <path d="M607.762 889.786C612.671 886.037 615.328 881.267 613.697 879.132C612.067 876.997 606.766 878.306 601.857 882.055C596.949 885.804 594.291 890.574 595.922 892.709C597.553 894.844 602.854 893.535 607.762 889.786Z" fill="#FDC858"/>
        <path d="M1509.76 889.786C1514.67 886.037 1517.33 881.267 1515.7 879.132C1514.07 876.997 1508.77 878.306 1503.86 882.055C1498.95 885.804 1496.29 890.574 1497.92 892.709C1499.55 894.844 1504.85 893.535 1509.76 889.786Z" fill="#FDC858"/>
        <path d="M401.571 892.856C407.6 889.272 410.864 884.712 408.861 882.672C406.858 880.631 400.347 881.882 394.319 885.466C388.29 889.05 385.026 893.61 387.029 895.651C389.031 897.691 395.542 896.44 401.571 892.856Z" fill="#FDC858"/>
        <path d="M43.5434 873.349C38.4785 868.726 35.7366 862.843 37.4192 860.21C39.1017 857.577 44.5715 859.191 49.6363 863.815C54.7011 868.439 57.4431 874.321 55.7606 876.954C54.078 879.587 48.6082 877.973 43.5434 873.349Z" fill="#FDC858"/>
        <path d="M607.761 869.966C612.67 866.217 615.327 861.447 613.697 859.312C612.066 857.177 606.765 858.486 601.856 862.235C596.948 865.984 594.291 870.754 595.921 872.889C597.552 875.024 602.853 873.715 607.761 869.966Z" fill="#FDC858"/>
        <path d="M1509.76 869.966C1514.67 866.217 1517.33 861.447 1515.7 859.312C1514.07 857.177 1508.77 858.486 1503.86 862.235C1498.95 865.984 1496.29 870.754 1497.92 872.889C1499.55 875.024 1504.85 873.715 1509.76 869.966Z" fill="#FDC858"/>
        <path d="M401.57 873.909C407.599 870.325 410.863 865.766 408.86 863.725C406.857 861.684 400.346 862.935 394.318 866.519C388.289 870.103 385.025 874.663 387.028 876.704C389.03 878.744 395.541 877.493 401.57 873.909Z" fill="#FDC858"/>
        <path d="M43.5442 848.906C38.4794 844.282 35.7375 838.4 37.42 835.767C39.1025 833.134 44.5723 834.748 49.6372 839.372C54.702 843.996 57.4439 849.878 55.7614 852.511C54.0789 855.144 48.6091 853.53 43.5442 848.906Z" fill="#FDC858"/>
        <path d="M607.763 937.99C612.671 934.241 615.329 929.471 613.698 927.336C612.068 925.201 606.767 926.51 601.858 930.259C596.949 934.009 594.292 938.778 595.923 940.913C597.553 943.048 602.854 941.739 607.763 937.99Z" fill="#FDC858"/>
        <path d="M1509.76 937.99C1514.67 934.241 1517.33 929.471 1515.7 927.336C1514.07 925.201 1508.77 926.51 1503.86 930.259C1498.95 934.009 1496.29 938.778 1497.92 940.913C1499.55 943.048 1504.85 941.739 1509.76 937.99Z" fill="#FDC858"/>
        <path d="M401.572 938.937C407.601 935.353 410.864 930.793 408.862 928.752C406.859 926.711 400.348 927.962 394.319 931.546C388.29 935.13 385.027 939.69 387.029 941.731C389.032 943.772 395.543 942.521 401.572 938.937Z" fill="#FDC858"/>
        <path d="M43.5428 932.797C38.4779 928.173 35.736 922.291 37.4185 919.658C39.1011 917.025 44.5709 918.639 49.6357 923.263C54.7005 927.887 57.4425 933.769 55.7599 936.402C54.0774 939.035 48.6076 937.421 43.5428 932.797Z" fill="#FDC858"/>
        <path d="M607.762 913.223C612.67 909.474 615.328 904.704 613.697 902.569C612.067 900.434 606.766 901.743 601.857 905.492C596.948 909.241 594.291 914.011 595.922 916.146C597.552 918.281 602.853 916.972 607.762 913.223Z" fill="#FDC858"/>
        <path d="M1509.76 913.223C1514.67 909.474 1517.33 904.704 1515.7 902.569C1514.07 900.434 1508.77 901.743 1503.86 905.492C1498.95 909.241 1496.29 914.011 1497.92 916.146C1499.55 918.281 1504.85 916.972 1509.76 913.223Z" fill="#FDC858"/>
        <path d="M401.571 915.261C407.6 911.677 410.864 907.117 408.861 905.076C406.858 903.035 400.347 904.286 394.319 907.87C388.29 911.454 385.026 916.014 387.029 918.055C389.031 920.096 395.542 918.845 401.571 915.261Z" fill="#FDC858"/>
        <path d="M43.5434 902.253C38.4785 897.629 35.7366 891.746 37.4192 889.114C39.1017 886.481 44.5715 888.095 49.6363 892.719C54.7011 897.342 57.4431 903.225 55.7606 905.858C54.078 908.49 48.6082 906.876 43.5434 902.253Z" fill="#FDC858"/>
        <path d="M607.762 889.786C612.671 886.037 615.328 881.267 613.697 879.132C612.067 876.997 606.766 878.306 601.857 882.055C596.949 885.804 594.291 890.574 595.922 892.709C597.553 894.844 602.854 893.535 607.762 889.786Z" stroke="#1D628B" stroke-width="8" stroke-miterlimit="10" stroke-linecap="round" stroke-linejoin="round"/>
        <path d="M1509.76 889.786C1514.67 886.037 1517.33 881.267 1515.7 879.132C1514.07 876.997 1508.77 878.306 1503.86 882.055C1498.95 885.804 1496.29 890.574 1497.92 892.709C1499.55 894.844 1504.85 893.535 1509.76 889.786Z" stroke="#1D628B" stroke-width="8" stroke-miterlimit="10" stroke-linecap="round" stroke-linejoin="round"/>
        <path d="M401.571 892.856C407.6 889.272 410.864 884.712 408.861 882.672C406.858 880.631 400.347 881.882 394.319 885.466C388.29 889.05 385.026 893.61 387.029 895.651C389.031 897.691 395.542 896.44 401.571 892.856Z" stroke="#1D628B" stroke-width="8" stroke-miterlimit="10" stroke-linecap="round" stroke-linejoin="round"/>
        <path d="M43.5434 873.349C38.4785 868.726 35.7366 862.843 37.4192 860.21C39.1017 857.577 44.5715 859.191 49.6363 863.815C54.7011 868.439 57.4431 874.321 55.7606 876.954C54.078 879.587 48.6082 877.973 43.5434 873.349Z" stroke="#1D628B" stroke-width="8" stroke-miterlimit="10" stroke-linecap="round" stroke-linejoin="round"/>
        <path d="M607.761 869.966C612.67 866.217 615.327 861.447 613.697 859.312C612.066 857.177 606.765 858.486 601.856 862.235C596.948 865.984 594.291 870.754 595.921 872.889C597.552 875.024 602.853 873.715 607.761 869.966Z" stroke="#1D628B" stroke-width="8" stroke-miterlimit="10" stroke-linecap="round" stroke-linejoin="round"/>
        <path d="M1509.76 869.966C1514.67 866.217 1517.33 861.447 1515.7 859.312C1514.07 857.177 1508.77 858.486 1503.86 862.235C1498.95 865.984 1496.29 870.754 1497.92 872.889C1499.55 875.024 1504.85 873.715 1509.76 869.966Z" stroke="#1D628B" stroke-width="8" stroke-miterlimit="10" stroke-linecap="round" stroke-linejoin="round"/>
        <path d="M401.57 873.909C407.599 870.325 410.863 865.766 408.86 863.725C406.857 861.684 400.346 862.935 394.318 866.519C388.289 870.103 385.025 874.663 387.028 876.704C389.03 878.744 395.541 877.493 401.57 873.909Z" stroke="#1D628B" stroke-width="8" stroke-miterlimit="10" stroke-linecap="round" stroke-linejoin="round"/>
        <path d="M43.5442 848.906C38.4794 844.282 35.7375 838.4 37.42 835.767C39.1025 833.134 44.5723 834.748 49.6372 839.372C54.702 843.996 57.4439 849.878 55.7614 852.511C54.0789 855.144 48.6091 853.53 43.5442 848.906Z" stroke="#1D628B" stroke-width="8" stroke-miterlimit="10" stroke-linecap="round" stroke-linejoin="round"/>
        <path d="M607.763 937.99C612.671 934.241 615.329 929.471 613.698 927.336C612.068 925.201 606.767 926.51 601.858 930.259C596.949 934.009 594.292 938.778 595.923 940.913C597.553 943.048 602.854 941.739 607.763 937.99Z" stroke="#1D628B" stroke-width="8" stroke-miterlimit="10" stroke-linecap="round" stroke-linejoin="round"/>
        <path d="M1509.76 937.99C1514.67 934.241 1517.33 929.471 1515.7 927.336C1514.07 925.201 1508.77 926.51 1503.86 930.259C1498.95 934.009 1496.29 938.778 1497.92 940.913C1499.55 943.048 1504.85 941.739 1509.76 937.99Z" stroke="#1D628B" stroke-width="8" stroke-miterlimit="10" stroke-linecap="round" stroke-linejoin="round"/>
        <path d="M401.572 938.937C407.601 935.353 410.864 930.793 408.862 928.752C406.859 926.711 400.348 927.962 394.319 931.546C388.29 935.13 385.027 939.69 387.029 941.731C389.032 943.772 395.543 942.521 401.572 938.937Z" stroke="#1D628B" stroke-width="8" stroke-miterlimit="10" stroke-linecap="round" stroke-linejoin="round"/>
        <path d="M43.5428 932.797C38.4779 928.173 35.736 922.291 37.4185 919.658C39.1011 917.025 44.5709 918.639 49.6357 923.263C54.7005 927.887 57.4425 933.769 55.7599 936.402C54.0774 939.035 48.6076 937.421 43.5428 932.797Z" stroke="#1D628B" stroke-width="8" stroke-miterlimit="10" stroke-linecap="round" stroke-linejoin="round"/>
        <path d="M607.762 913.223C612.67 909.474 615.328 904.704 613.697 902.569C612.067 900.434 606.766 901.743 601.857 905.492C596.948 909.241 594.291 914.011 595.922 916.146C597.552 918.281 602.853 916.972 607.762 913.223Z" stroke="#1D628B" stroke-width="8" stroke-miterlimit="10" stroke-linecap="round" stroke-linejoin="round"/>
        <path d="M1509.76 913.223C1514.67 909.474 1517.33 904.704 1515.7 902.569C1514.07 900.434 1508.77 901.743 1503.86 905.492C1498.95 909.241 1496.29 914.011 1497.92 916.146C1499.55 918.281 1504.85 916.972 1509.76 913.223Z" stroke="#1D628B" stroke-width="8" stroke-miterlimit="10" stroke-linecap="round" stroke-linejoin="round"/>
        <path d="M401.571 915.261C407.6 911.677 410.864 907.117 408.861 905.076C406.858 903.035 400.347 904.286 394.319 907.87C388.29 911.454 385.026 916.014 387.029 918.055C389.031 920.096 395.542 918.845 401.571 915.261Z" stroke="#1D628B" stroke-width="8" stroke-miterlimit="10" stroke-linecap="round" stroke-linejoin="round"/>
        <path d="M43.5434 902.253C38.4785 897.629 35.7366 891.746 37.4192 889.114C39.1017 886.481 44.5715 888.095 49.6363 892.719C54.7011 897.342 57.4431 903.225 55.7606 905.858C54.078 908.49 48.6082 906.876 43.5434 902.253Z" stroke="#1D628B" stroke-width="8" stroke-miterlimit="10" stroke-linecap="round" stroke-linejoin="round"/>
        <path d="M595.911 872.914C597.541 870.779 594.884 866.01 589.975 862.26C585.067 858.511 579.766 857.202 578.135 859.337C576.505 861.472 579.162 866.242 584.07 869.991C588.979 873.74 594.28 875.049 595.911 872.914Z" fill="#FDC858"/>
        <path d="M1497.91 872.914C1499.54 870.779 1496.88 866.01 1491.98 862.26C1487.07 858.511 1481.77 857.202 1480.14 859.337C1478.5 861.472 1481.16 866.242 1486.07 869.991C1490.98 873.74 1496.28 875.049 1497.91 872.914Z" fill="#FDC858"/>
        <path d="M387.015 876.728C389.018 874.687 385.754 870.127 379.725 866.543C373.696 862.959 367.185 861.708 365.182 863.749C363.18 865.79 366.444 870.349 372.472 873.933C378.501 877.517 385.012 878.769 387.015 876.728Z" fill="#FDC858"/>
        <path d="M55.7722 852.542C54.0896 849.909 56.8315 844.027 61.8964 839.403C66.9612 834.779 72.431 833.165 74.1136 835.798C75.7961 838.431 73.0541 844.313 67.9893 848.937C62.9245 853.561 57.4547 855.175 55.7722 852.542Z" fill="#FDC858"/>
        <path d="M595.91 930.979C597.541 928.845 594.884 924.075 589.975 920.326C585.067 916.576 579.766 915.268 578.135 917.402C576.504 919.537 579.162 924.307 584.07 928.056C588.979 931.806 594.28 933.114 595.91 930.979Z" fill="#FDC858"/>
        <path d="M1497.91 930.979C1499.54 928.845 1496.88 924.075 1491.98 920.326C1487.07 916.576 1481.77 915.268 1480.13 917.402C1478.5 919.537 1481.16 924.307 1486.07 928.056C1490.98 931.806 1496.28 933.114 1497.91 930.979Z" fill="#FDC858"/>
        <path d="M387.014 932.235C389.017 930.194 385.753 925.634 379.725 922.05C373.696 918.466 367.185 917.215 365.182 919.256C363.179 921.297 366.443 925.857 372.472 929.441C378.501 933.025 385.012 934.276 387.014 932.235Z" fill="#FDC858"/>
        <path d="M55.7725 924.151C54.09 921.518 56.8319 915.636 61.8967 911.012C66.9616 906.388 72.4314 904.774 74.1139 907.407C75.7964 910.04 73.0545 915.922 67.9897 920.546C62.9248 925.17 57.455 926.784 55.7725 924.151Z" fill="#FDC858"/>
        <path d="M595.911 906.146C597.542 904.012 594.884 899.242 589.976 895.492C585.067 891.743 579.766 890.435 578.136 892.569C576.505 894.704 579.162 899.474 584.071 903.223C588.979 906.973 594.28 908.281 595.911 906.146Z" fill="#FDC858"/>
        <path d="M1497.91 906.146C1499.54 904.012 1496.88 899.242 1491.98 895.492C1487.07 891.743 1481.77 890.435 1480.14 892.569C1478.5 894.704 1481.16 899.474 1486.07 903.223C1490.98 906.973 1496.28 908.281 1497.91 906.146Z" fill="#FDC858"/>
        <path d="M387.015 908.496C389.018 906.455 385.754 901.895 379.725 898.311C373.696 894.727 367.185 893.476 365.183 895.517C363.18 897.558 366.444 902.117 372.473 905.701C378.501 909.285 385.012 910.537 387.015 908.496Z" fill="#FDC858"/>
        <path d="M55.7719 893.526C54.0894 890.893 56.8313 885.01 61.8962 880.386C66.961 875.763 72.4308 874.149 74.1133 876.782C75.7958 879.414 73.0539 885.297 67.9891 889.921C62.9243 894.544 57.4544 896.158 55.7719 893.526Z" fill="#FDC858"/>
        <path d="M595.911 872.914C597.541 870.779 594.884 866.01 589.975 862.26C585.067 858.511 579.766 857.202 578.135 859.337C576.505 861.472 579.162 866.242 584.07 869.991C588.979 873.74 594.28 875.049 595.911 872.914Z" stroke="#1D628B" stroke-width="8" stroke-miterlimit="10" stroke-linecap="round" stroke-linejoin="round"/>
        <path d="M1497.91 872.914C1499.54 870.779 1496.88 866.01 1491.98 862.26C1487.07 858.511 1481.77 857.202 1480.14 859.337C1478.5 861.472 1481.16 866.242 1486.07 869.991C1490.98 873.74 1496.28 875.049 1497.91 872.914Z" stroke="#1D628B" stroke-width="8" stroke-miterlimit="10" stroke-linecap="round" stroke-linejoin="round"/>
        <path d="M387.015 876.728C389.018 874.687 385.754 870.127 379.725 866.543C373.696 862.959 367.185 861.708 365.182 863.749C363.18 865.79 366.444 870.349 372.472 873.933C378.501 877.517 385.012 878.769 387.015 876.728Z" stroke="#1D628B" stroke-width="8" stroke-miterlimit="10" stroke-linecap="round" stroke-linejoin="round"/>
        <path d="M55.7722 852.542C54.0896 849.909 56.8315 844.027 61.8964 839.403C66.9612 834.779 72.431 833.165 74.1136 835.798C75.7961 838.431 73.0541 844.313 67.9893 848.937C62.9245 853.561 57.4547 855.175 55.7722 852.542Z" stroke="#1D628B" stroke-width="8" stroke-miterlimit="10" stroke-linecap="round" stroke-linejoin="round"/>
        <path d="M595.91 930.979C597.541 928.845 594.884 924.075 589.975 920.326C585.067 916.576 579.766 915.268 578.135 917.402C576.504 919.537 579.162 924.307 584.07 928.056C588.979 931.806 594.28 933.114 595.91 930.979Z" stroke="#1D628B" stroke-width="8" stroke-miterlimit="10" stroke-linecap="round" stroke-linejoin="round"/>
        <path d="M1497.91 930.979C1499.54 928.845 1496.88 924.075 1491.98 920.326C1487.07 916.576 1481.77 915.268 1480.13 917.402C1478.5 919.537 1481.16 924.307 1486.07 928.056C1490.98 931.806 1496.28 933.114 1497.91 930.979Z" stroke="#1D628B" stroke-width="8" stroke-miterlimit="10" stroke-linecap="round" stroke-linejoin="round"/>
        <path d="M387.014 932.235C389.017 930.194 385.753 925.634 379.725 922.05C373.696 918.466 367.185 917.215 365.182 919.256C363.179 921.297 366.443 925.857 372.472 929.441C378.501 933.025 385.012 934.276 387.014 932.235Z" stroke="#1D628B" stroke-width="8" stroke-miterlimit="10" stroke-linecap="round" stroke-linejoin="round"/>
        <path d="M55.7725 924.151C54.09 921.518 56.8319 915.636 61.8967 911.012C66.9616 906.388 72.4314 904.774 74.1139 907.407C75.7964 910.04 73.0545 915.922 67.9897 920.546C62.9248 925.17 57.455 926.784 55.7725 924.151Z" stroke="#1D628B" stroke-width="8" stroke-miterlimit="10" stroke-linecap="round" stroke-linejoin="round"/>
        <path d="M595.911 906.146C597.542 904.012 594.884 899.242 589.976 895.492C585.067 891.743 579.766 890.435 578.136 892.569C576.505 894.704 579.162 899.474 584.071 903.223C588.979 906.973 594.28 908.281 595.911 906.146Z" stroke="#1D628B" stroke-width="8" stroke-miterlimit="10" stroke-linecap="round" stroke-linejoin="round"/>
        <path d="M1497.91 906.146C1499.54 904.012 1496.88 899.242 1491.98 895.492C1487.07 891.743 1481.77 890.435 1480.14 892.569C1478.5 894.704 1481.16 899.474 1486.07 903.223C1490.98 906.973 1496.28 908.281 1497.91 906.146Z" stroke="#1D628B" stroke-width="8" stroke-miterlimit="10" stroke-linecap="round" stroke-linejoin="round"/>
        <path d="M387.015 908.496C389.018 906.455 385.754 901.895 379.725 898.311C373.696 894.727 367.185 893.476 365.183 895.517C363.18 897.558 366.444 902.117 372.473 905.701C378.501 909.285 385.012 910.537 387.015 908.496Z" stroke="#1D628B" stroke-width="8" stroke-miterlimit="10" stroke-linecap="round" stroke-linejoin="round"/>
        <path d="M55.7719 893.526C54.0894 890.893 56.8313 885.01 61.8962 880.386C66.961 875.763 72.4308 874.149 74.1133 876.782C75.7958 879.414 73.0539 885.297 67.9891 889.921C62.9243 894.544 57.4544 896.158 55.7719 893.526Z" stroke="#1D628B" stroke-width="8" stroke-miterlimit="10" stroke-linecap="round" stroke-linejoin="round"/>
        <path d="M597 869V960" stroke="#1D628B" stroke-width="8" stroke-miterlimit="10" stroke-linecap="round" stroke-linejoin="round"/>
        <path d="M1499 869V960" stroke="#1D628B" stroke-width="8" stroke-miterlimit="10" stroke-linecap="round" stroke-linejoin="round"/>
        <path d="M389 872V960" stroke="#1D628B" stroke-width="8" stroke-miterlimit="10" stroke-linecap="round" stroke-linejoin="round"/>
        <path d="M54 846V960" stroke="#1D628B" stroke-width="8" stroke-miterlimit="10" stroke-linecap="round" stroke-linejoin="round"/>
        <path d="M659.766 942.789C664.675 939.039 667.332 934.269 665.701 932.135C664.071 930 658.77 931.309 653.861 935.058C648.953 938.807 646.295 943.577 647.926 945.712C649.556 947.847 654.857 946.538 659.766 942.789Z" stroke="#1D628B" stroke-width="8" stroke-miterlimit="10" stroke-linecap="round" stroke-linejoin="round"/>
        <path d="M1910.58 941.1C1915.49 937.351 1918.14 932.581 1916.51 930.446C1914.88 928.311 1909.58 929.62 1904.67 933.369C1899.77 937.119 1897.11 941.889 1898.74 944.023C1900.37 946.158 1905.67 944.85 1910.58 941.1Z" stroke="#1D628B" stroke-width="8" stroke-miterlimit="10" stroke-linecap="round" stroke-linejoin="round"/>
        <path d="M1561.77 942.789C1566.67 939.039 1569.33 934.269 1567.7 932.135C1566.07 930 1560.77 931.309 1555.86 935.058C1550.95 938.807 1548.3 943.577 1549.93 945.712C1551.56 947.847 1556.86 946.538 1561.77 942.789Z" stroke="#1D628B" stroke-width="8" stroke-miterlimit="10" stroke-linecap="round" stroke-linejoin="round"/>
        <path d="M349.386 943.098C355.415 939.514 358.679 934.955 356.676 932.914C354.673 930.873 348.163 932.124 342.134 935.708C336.105 939.292 332.841 943.852 334.844 945.893C336.847 947.933 343.357 946.682 349.386 943.098Z" stroke="#1D628B" stroke-width="8" stroke-miterlimit="10" stroke-linecap="round" stroke-linejoin="round"/>
        <path d="M90.384 939.715C85.3191 935.092 82.5772 929.209 84.2597 926.576C85.9423 923.944 91.4121 925.558 96.4769 930.181C101.542 934.805 104.284 940.688 102.601 943.32C100.919 945.953 95.4488 944.339 90.384 939.715Z" stroke="#1D628B" stroke-width="8" stroke-miterlimit="10" stroke-linecap="round" stroke-linejoin="round"/>
        <path d="M659.766 921.984C664.675 918.235 667.332 913.465 665.701 911.33C664.071 909.196 658.77 910.504 653.861 914.254C648.953 918.003 646.295 922.773 647.926 924.908C649.557 927.042 654.858 925.734 659.766 921.984Z" stroke="#1D628B" stroke-width="8" stroke-miterlimit="10" stroke-linecap="round" stroke-linejoin="round"/>
        <path d="M1910.58 920.296C1915.49 916.547 1918.14 911.777 1916.51 909.642C1914.88 907.507 1909.58 908.816 1904.67 912.565C1899.77 916.314 1897.11 921.084 1898.74 923.219C1900.37 925.354 1905.67 924.045 1910.58 920.296Z" stroke="#1D628B" stroke-width="8" stroke-miterlimit="10" stroke-linecap="round" stroke-linejoin="round"/>
        <path d="M1561.77 921.984C1566.67 918.235 1569.33 913.465 1567.7 911.33C1566.07 909.196 1560.77 910.504 1555.86 914.254C1550.95 918.003 1548.3 922.773 1549.93 924.908C1551.56 927.042 1556.86 925.734 1561.77 921.984Z" stroke="#1D628B" stroke-width="8" stroke-miterlimit="10" stroke-linecap="round" stroke-linejoin="round"/>
        <path d="M349.386 923.211C355.415 919.627 358.679 915.067 356.676 913.026C354.674 910.985 348.163 912.236 342.134 915.82C336.105 919.404 332.841 923.964 334.844 926.005C336.847 928.046 343.358 926.795 349.386 923.211Z" stroke="#1D628B" stroke-width="8" stroke-miterlimit="10" stroke-linecap="round" stroke-linejoin="round"/>
        <path d="M90.3838 914.059C85.319 909.435 82.5771 903.552 84.2596 900.92C85.9421 898.287 91.4119 899.901 96.4768 904.525C101.542 909.148 104.284 915.031 102.601 917.664C100.918 920.296 95.4487 918.682 90.3838 914.059Z" stroke="#1D628B" stroke-width="8" stroke-miterlimit="10" stroke-linecap="round" stroke-linejoin="round"/>
        <path d="M659.766 903.208C664.674 899.459 667.331 894.689 665.701 892.554C664.07 890.419 658.769 891.728 653.861 895.477C648.952 899.226 646.295 903.996 647.925 906.131C649.556 908.266 654.857 906.957 659.766 903.208Z" stroke="#1D628B" stroke-width="8" stroke-miterlimit="10" stroke-linecap="round" stroke-linejoin="round"/>
        <path d="M1910.58 901.519C1915.49 897.77 1918.14 893 1916.51 890.865C1914.88 888.731 1909.58 890.039 1904.67 893.789C1899.76 897.538 1897.11 902.308 1898.74 904.443C1900.37 906.577 1905.67 905.269 1910.58 901.519Z" stroke="#1D628B" stroke-width="8" stroke-miterlimit="10" stroke-linecap="round" stroke-linejoin="round"/>
        <path d="M1561.77 903.208C1566.67 899.459 1569.33 894.689 1567.7 892.554C1566.07 890.419 1560.77 891.728 1555.86 895.477C1550.95 899.226 1548.29 903.996 1549.93 906.131C1551.56 908.266 1556.86 906.957 1561.77 903.208Z" stroke="#1D628B" stroke-width="8" stroke-miterlimit="10" stroke-linecap="round" stroke-linejoin="round"/>
        <path d="M349.386 905.261C355.414 901.677 358.678 897.117 356.675 895.077C354.673 893.036 348.162 894.287 342.133 897.871C336.104 901.455 332.84 906.015 334.843 908.056C336.846 910.096 343.357 908.845 349.386 905.261Z" stroke="#1D628B" stroke-width="8" stroke-miterlimit="10" stroke-linecap="round" stroke-linejoin="round"/>
        <path d="M90.3846 890.902C85.3197 886.279 82.5778 880.396 84.2603 877.763C85.9429 875.131 91.4127 876.745 96.4775 881.368C101.542 885.992 104.284 891.874 102.602 894.507C100.919 897.14 95.4494 895.526 90.3846 890.902Z" stroke="#1D628B" stroke-width="8" stroke-miterlimit="10" stroke-linecap="round" stroke-linejoin="round"/>
        <path d="M647.915 930.981C649.546 928.846 646.889 924.076 641.98 920.327C637.071 916.578 631.77 915.269 630.14 917.404C628.509 919.539 631.166 924.309 636.075 928.058C640.984 931.807 646.285 933.116 647.915 930.981Z" stroke="#1D628B" stroke-width="8" stroke-miterlimit="10" stroke-linecap="round" stroke-linejoin="round"/>
        <path d="M1898.73 929.293C1900.36 927.158 1897.7 922.388 1892.79 918.639C1887.88 914.89 1882.58 913.581 1880.95 915.716C1879.32 917.85 1881.98 922.62 1886.89 926.37C1891.8 930.119 1897.1 931.428 1898.73 929.293Z" stroke="#1D628B" stroke-width="8" stroke-miterlimit="10" stroke-linecap="round" stroke-linejoin="round"/>
        <path d="M1549.92 930.981C1551.55 928.846 1548.89 924.076 1543.98 920.327C1539.07 916.578 1533.77 915.269 1532.14 917.404C1530.51 919.539 1533.17 924.309 1538.08 928.058C1542.98 931.807 1548.28 933.116 1549.92 930.981Z" stroke="#1D628B" stroke-width="8" stroke-miterlimit="10" stroke-linecap="round" stroke-linejoin="round"/>
        <path d="M334.831 931.811C336.833 929.77 333.57 925.21 327.541 921.626C321.512 918.042 315.001 916.791 312.998 918.832C310.996 920.873 314.259 925.433 320.288 929.017C326.317 932.601 332.828 933.852 334.831 931.811Z" stroke="#1D628B" stroke-width="8" stroke-miterlimit="10" stroke-linecap="round" stroke-linejoin="round"/>
        <path d="M102.612 925.154C100.93 922.521 103.672 916.638 108.736 912.015C113.801 907.391 119.271 905.777 120.954 908.41C122.636 911.042 119.894 916.925 114.829 921.549C109.764 926.172 104.295 927.786 102.612 925.154Z" stroke="#1D628B" stroke-width="8" stroke-miterlimit="10" stroke-linecap="round" stroke-linejoin="round"/>
        <path d="M647.916 906.147C649.547 904.013 646.889 899.243 641.981 895.493C637.072 891.744 631.771 890.435 630.14 892.57C628.51 894.705 631.167 899.475 636.076 903.224C640.984 906.973 646.285 908.282 647.916 906.147Z" stroke="#1D628B" stroke-width="8" stroke-miterlimit="10" stroke-linecap="round" stroke-linejoin="round"/>
        <path d="M1898.73 904.459C1900.36 902.324 1897.7 897.554 1892.79 893.805C1887.88 890.056 1882.58 888.747 1880.95 890.882C1879.32 893.017 1881.98 897.787 1886.89 901.536C1891.8 905.285 1897.1 906.594 1898.73 904.459Z" stroke="#1D628B" stroke-width="8" stroke-miterlimit="10" stroke-linecap="round" stroke-linejoin="round"/>
        <path d="M1549.92 906.147C1551.55 904.013 1548.89 899.243 1543.98 895.493C1539.07 891.744 1533.77 890.435 1532.14 892.57C1530.51 894.705 1533.17 899.475 1538.08 903.224C1542.98 906.973 1548.29 908.282 1549.92 906.147Z" stroke="#1D628B" stroke-width="8" stroke-miterlimit="10" stroke-linecap="round" stroke-linejoin="round"/>
        <path d="M334.831 908.071C336.834 906.031 333.57 901.471 327.542 897.887C321.513 894.303 315.002 893.052 312.999 895.092C310.996 897.133 314.26 901.693 320.289 905.277C326.318 908.861 332.829 910.112 334.831 908.071Z" stroke="#1D628B" stroke-width="8" stroke-miterlimit="10" stroke-linecap="round" stroke-linejoin="round"/>
        <path d="M102.612 894.528C100.929 891.895 103.671 886.012 108.736 881.388C113.801 876.765 119.27 875.151 120.953 877.784C122.635 880.416 119.894 886.299 114.829 890.923C109.764 895.546 104.294 897.16 102.612 894.528Z" stroke="#1D628B" stroke-width="8" stroke-miterlimit="10" stroke-linecap="round" stroke-linejoin="round"/>
        <path d="M648 903V960" stroke="#1D628B" stroke-width="8" stroke-miterlimit="10" stroke-linecap="round" stroke-linejoin="round"/>
        <path d="M1898.81 901.312V958.312" stroke="#1D628B" stroke-width="8" stroke-miterlimit="10" stroke-linecap="round" stroke-linejoin="round"/>
        <path d="M1550 903V960" stroke="#1D628B" stroke-width="8" stroke-miterlimit="10" stroke-linecap="round" stroke-linejoin="round"/>
        <path d="M335 905V959" stroke="#1D628B" stroke-width="8" stroke-miterlimit="10" stroke-linecap="round" stroke-linejoin="round"/>
        <path d="M102 891V960" stroke="#1D628B" stroke-width="8" stroke-miterlimit="10" stroke-linecap="round" stroke-linejoin="round"/>
        <path d="M418 594.154L429.569 609.152L457.897 597.971L494.425 612L509.513 597.971L538.101 607.383L553.593 583.843L589.91 598.389L604.272 576.309M657.403 546.284L693.547 537.842L706.849 562.231L744.37 542.006L771.767 559.257L789.435 533.083L835.424 540.773M809.581 457.192H979.259C980.264 454.819 980.78 452.267 980.777 449.69C980.777 439.049 972.141 430.424 961.487 430.424C959.387 430.424 957.371 430.77 955.478 431.39C951.028 419.367 939.449 410.794 925.863 410.794C922.259 410.794 918.8 411.406 915.573 412.517C908.743 397.472 893.584 387 875.967 387C851.956 387 832.49 406.442 832.49 430.424C832.49 432.848 832.698 435.221 833.079 437.536C822.279 439.6 813.443 447.163 809.581 457.192ZM1103.99 534.705C1103.99 534.59 1104 534.477 1104 534.361C1104 522.977 1094.76 513.748 1083.36 513.748C1081.31 513.747 1079.27 514.051 1077.31 514.65C1077.35 514.039 1077.37 513.428 1077.37 512.816C1077.37 494.773 1062.72 480.145 1044.66 480.145C1026.59 480.145 1011.95 494.773 1011.95 512.816C1011.95 514.68 1012.11 516.504 1012.41 518.282C1012.26 518.278 1012.1 518.259 1011.95 518.259C1003.08 518.259 995.899 525.435 995.899 534.287C995.899 534.429 995.917 534.566 995.92 534.706L1103.99 534.705Z" stroke="#4589B0" stroke-width="8" stroke-miterlimit="10" stroke-linecap="round" stroke-linejoin="round"/>
        <path d="M1108 594.154L1119.6 609.152L1148.01 597.971L1184.65 612L1199.78 597.971L1228.45 607.383L1243.99 583.843L1280.41 598.389L1294.82 576.309M1348.1 546.284L1384.35 537.842L1397.69 562.231L1435.32 542.006L1462.8 559.257L1480.52 533.083L1526.64 540.773M1500.72 457.192H1670.9C1671.9 454.819 1672.42 452.267 1672.42 449.69C1672.42 439.049 1663.76 430.424 1653.07 430.424C1650.97 430.424 1648.94 430.77 1647.05 431.39C1642.58 419.367 1630.97 410.794 1617.34 410.794C1613.73 410.794 1610.26 411.406 1607.02 412.517C1600.17 397.472 1584.97 387 1567.3 387C1543.22 387 1523.7 406.442 1523.7 430.424C1523.7 432.848 1523.91 435.221 1524.29 437.536C1513.46 439.6 1504.6 447.163 1500.72 457.192ZM1795.99 534.705C1795.99 534.59 1796 534.477 1796 534.361C1796 522.977 1786.73 513.748 1775.3 513.748C1773.25 513.747 1771.2 514.051 1769.24 514.65C1769.27 514.039 1769.29 513.428 1769.29 512.816C1769.29 494.773 1754.6 480.145 1736.48 480.145C1718.37 480.145 1703.68 494.773 1703.68 512.816C1703.68 514.68 1703.84 516.504 1704.14 518.282C1703.99 518.278 1703.84 518.259 1703.68 518.259C1694.79 518.259 1687.58 525.435 1687.58 534.287C1687.58 534.429 1687.6 534.566 1687.61 534.706L1795.99 534.705Z" stroke="#4589B0" stroke-width="8" stroke-miterlimit="10" stroke-linecap="round" stroke-linejoin="round"/>
        <path d="M898 955C882.009 955 869 942.215 869 926.5C869 910.785 882.01 898 898 898C913.99 898 927 910.785 927 926.5C927 942.215 913.99 955 898 955Z" fill="#4589B0"/>
        <path d="M898 955C882.009 955 869 942.215 869 926.5C869 910.785 882.01 898 898 898C913.99 898 927 910.785 927 926.5C927 942.215 913.99 955 898 955Z" stroke="#1D628B" stroke-width="8" stroke-miterlimit="10" stroke-linecap="round" stroke-linejoin="round"/>
        <path d="M898 941C889.729 941 883 934.496 883 926.501C883 918.505 889.729 912 898 912C906.271 912 913 918.504 913 926.501C913.001 934.496 906.271 941 898 941Z" fill="#FDC858"/>
        <path d="M898 941C889.729 941 883 934.496 883 926.501C883 918.505 889.729 912 898 912C906.271 912 913 918.504 913 926.501C913.001 934.496 906.271 941 898 941Z" stroke="#1D628B" stroke-width="8" stroke-miterlimit="10" stroke-linecap="round" stroke-linejoin="round"/>
        <path d="M898 931C895.243 931 893 928.757 893 926C893 923.243 895.243 921 898 921C900.757 921 903 923.243 903 926C903 928.757 900.757 931 898 931Z" fill="#FDC858"/>
        <path d="M897.5 931C895.019 931 893 928.981 893 926.5C893 924.019 895.019 922 897.5 922C899.981 922 902 924.019 902 926.5C902 928.981 899.981 931 897.5 931Z" stroke="#1D628B" stroke-width="8" stroke-miterlimit="10" stroke-linecap="round" stroke-linejoin="round"/>
        <path d="M1128.37 837.513L1122.51 815.04C1121.37 810.655 1118.93 806.723 1115.52 803.765C1112.11 800.807 1107.89 798.963 1103.41 798.476C1077.17 795.619 1045.37 794 1008.21 794C965.699 794 900.421 797.29 880.795 799.53C879.043 799.73 877.376 800.394 875.962 801.455C874.548 802.516 873.438 803.935 872.746 805.569L860.948 833.391C855.499 843.195 852.193 854.06 851.254 865.257L851 927.849L864.213 928.076C864.145 927.2 864.109 926.322 864.106 925.443C864.106 905.997 879.752 890.232 899.054 890.232C918.355 890.232 934.002 905.996 934.002 925.443C934.002 926.568 933.944 927.679 933.842 928.777L1025.69 929.93C1025.5 928.442 1025.4 926.943 1025.4 925.443C1025.4 905.997 1041.05 890.232 1060.35 890.232C1079.65 890.232 1095.3 905.996 1095.3 925.443C1095.29 927.178 1095.17 928.91 1094.92 930.627L1132 931V865.795C1132 856.25 1130.78 846.745 1128.37 837.513Z" fill="#4589B0"/>
        <g opacity="0.36">
            <path d="M856.989 928.296L857.244 866C858.186 854.856 861.5 844.042 866.965 834.284L878.794 806.594C879.488 804.968 880.601 803.556 882.019 802.5C883.437 801.444 885.109 800.783 886.866 800.584C905.966 798.42 968.186 795.272 1010.81 795.089C1009.75 795.086 1008.7 795.08 1007.63 795.08C965.005 795.08 899.548 798.354 879.869 800.584C878.112 800.783 876.44 801.444 875.022 802.5C873.604 803.556 872.491 804.968 871.797 806.594L859.968 834.284C854.503 844.042 851.189 854.856 850.246 866L849.992 928.296L863.241 928.522C863.238 928.482 863.237 928.442 863.234 928.402L856.989 928.296ZM1101.57 931.061C1101.83 929.353 1101.95 927.629 1101.95 925.902C1101.95 906.548 1086.26 890.858 1066.91 890.858C1065.74 890.858 1064.57 890.917 1063.41 891.032C1081.12 892.788 1094.96 907.728 1094.96 925.901C1094.95 927.628 1094.83 929.352 1094.57 931.06L1131.76 931.432V931.362L1101.57 931.061Z" fill="#8E63AD"/>
            <path d="M940.057 929.22C940.16 928.127 940.218 927.022 940.218 925.902C940.218 906.548 924.529 890.858 905.174 890.858C904.006 890.858 902.839 890.917 901.676 891.032C919.387 892.788 933.221 907.728 933.221 925.901C933.221 927.021 933.162 928.127 933.06 929.219L1025.16 930.367L1025.15 930.28L940.057 929.22Z" fill="#8E63AD"/>
        </g>
        <path opacity="0.36" d="M940.549 923H1023V915H939C939.846 917.596 940.366 920.282 940.549 923Z" fill="#8E63AD"/>
        <path opacity="0.25" d="M1128.37 837.513L1122.5 815.04C1121.35 810.655 1118.91 806.723 1115.49 803.765C1112.08 800.807 1107.85 798.963 1103.37 798.476C1077.08 795.619 1045.23 794 1008.02 794C965.44 794 900.061 797.29 880.404 799.53C878.891 799.703 877.437 800.221 876.154 801.046C874.87 801.871 873.792 802.98 873 804.289C873.014 804.287 873.028 803.224 873.043 803.223C892.699 800.983 958.079 798.752 1000.66 798.752C1037.87 798.752 1069.72 800.372 1096.01 803.228C1100.49 803.715 1104.72 805.56 1108.13 808.518C1111.55 811.476 1113.99 815.407 1115.14 819.792L1121.01 842.266C1123.42 851.497 1124.64 861.003 1124.64 870.548V930.926L1132 931V865.795C1132 856.25 1130.78 846.745 1128.37 837.513Z" fill="#8E63AD"/>
        <path d="M1128.37 837.513L1122.51 815.04C1121.37 810.655 1118.93 806.723 1115.52 803.765C1112.11 800.807 1107.89 798.963 1103.41 798.476C1077.17 795.619 1045.37 794 1008.21 794C965.699 794 900.421 797.29 880.795 799.53C879.043 799.73 877.376 800.394 875.962 801.455C874.548 802.516 873.438 803.935 872.746 805.569L860.948 833.391C855.499 843.195 852.193 854.06 851.254 865.257L851 927.849L864.213 928.076C864.145 927.2 864.109 926.322 864.106 925.443C864.106 905.997 879.752 890.232 899.054 890.232C918.355 890.232 934.002 905.996 934.002 925.443C934.002 926.568 933.944 927.679 933.842 928.777L1025.69 929.93C1025.5 928.442 1025.4 926.943 1025.4 925.443C1025.4 905.997 1041.05 890.232 1060.35 890.232C1079.65 890.232 1095.3 905.996 1095.3 925.443C1095.29 927.178 1095.17 928.91 1094.92 930.627L1132 931V865.795C1132 856.25 1130.78 846.745 1128.37 837.513Z" stroke="#1D628B" stroke-width="8" stroke-miterlimit="10" stroke-linecap="round" stroke-linejoin="round"/>
        <path d="M1060.5 955C1044.79 955 1032 942.215 1032 926.5C1032 910.785 1044.79 898 1060.5 898C1076.21 898 1089 910.785 1089 926.5C1089 942.215 1076.21 955 1060.5 955Z" fill="#4589B0"/>
        <path d="M1060.5 955C1044.79 955 1032 942.215 1032 926.5C1032 910.785 1044.79 898 1060.5 898C1076.21 898 1089 910.785 1089 926.5C1089 942.215 1076.21 955 1060.5 955Z" stroke="#1D628B" stroke-width="8" stroke-miterlimit="10" stroke-linecap="round" stroke-linejoin="round"/>
        <path d="M1060.5 941C1052.51 941 1046 934.496 1046 926.501C1046 918.505 1052.5 912 1060.5 912C1068.5 912 1075 918.504 1075 926.501C1075 934.496 1068.5 941 1060.5 941Z" fill="#FDC858"/>
        <path d="M1060.5 941C1052.51 941 1046 934.496 1046 926.501C1046 918.505 1052.5 912 1060.5 912C1068.5 912 1075 918.504 1075 926.501C1075 934.496 1068.5 941 1060.5 941Z" stroke="#1D628B" stroke-width="8" stroke-miterlimit="10" stroke-linecap="round" stroke-linejoin="round"/>
        <path d="M1060.5 931C1058.02 931 1056 928.757 1056 926C1056 923.243 1058.02 921 1060.5 921C1062.98 921 1065 923.243 1065 926C1065 928.757 1062.98 931 1060.5 931Z" fill="#FDC858"/>
        <path d="M1060.5 931C1058.02 931 1056 928.981 1056 926.5C1056 924.019 1058.02 922 1060.5 922C1062.98 922 1065 924.019 1065 926.5C1065 928.981 1062.98 931 1060.5 931Z" stroke="#1D628B" stroke-width="8" stroke-miterlimit="10" stroke-linecap="round" stroke-linejoin="round"/>
        <path d="M851 934H843.527C842.061 934 840.655 933.455 839.619 932.484C838.582 931.514 838 930.197 838 928.825V908.175C838 906.803 838.582 905.486 839.619 904.516C840.655 903.545 842.061 903 843.527 903H851V934Z" fill="white"/>
        <path d="M851 934H843.527C842.061 934 840.655 933.455 839.619 932.484C838.582 931.514 838 930.197 838 928.825V908.175C838 906.803 838.582 905.486 839.619 904.516C840.655 903.545 842.061 903 843.527 903H851V934Z" stroke="#1D628B" stroke-width="8" stroke-miterlimit="10" stroke-linecap="round" stroke-linejoin="round"/>
        <path d="M850.72 895H848.28C847.849 895 847.422 894.918 847.025 894.758C846.627 894.598 846.265 894.364 845.96 894.069C845.656 893.774 845.414 893.423 845.249 893.037C845.085 892.651 845 892.238 845 891.82V877.18C845 876.762 845.085 876.349 845.249 875.963C845.414 875.577 845.656 875.226 845.96 874.931C846.265 874.636 846.627 874.402 847.025 874.242C847.422 874.082 847.849 874 848.28 874H850.72C851.151 874 851.578 874.082 851.975 874.242C852.373 874.402 852.735 874.636 853.04 874.931C853.344 875.226 853.586 875.577 853.751 875.963C853.915 876.349 854 876.762 854 877.18V891.82C854 892.238 853.915 892.651 853.751 893.037C853.586 893.423 853.344 893.774 853.04 894.069C852.735 894.364 852.373 894.598 851.975 894.758C851.578 894.918 851.151 895 850.72 895Z" fill="white"/>
        <path d="M850.72 895H848.28C847.849 895 847.422 894.918 847.025 894.758C846.627 894.598 846.265 894.364 845.96 894.069C845.656 893.774 845.414 893.423 845.249 893.037C845.085 892.651 845 892.238 845 891.82V877.18C845 876.762 845.085 876.349 845.249 875.963C845.414 875.577 845.656 875.226 845.96 874.931C846.265 874.636 846.627 874.402 847.025 874.242C847.422 874.082 847.849 874 848.28 874H850.72C851.151 874 851.578 874.082 851.975 874.242C852.373 874.402 852.735 874.636 853.04 874.931C853.344 875.226 853.586 875.577 853.751 875.963C853.915 876.349 854 876.762 854 877.18V891.82C854 892.238 853.915 892.651 853.751 893.037C853.586 893.423 853.344 893.774 853.04 894.069C852.735 894.364 852.373 894.598 851.975 894.758C851.578 894.918 851.151 895 850.72 895Z" stroke="#1D628B" stroke-width="8" stroke-miterlimit="10" stroke-linecap="round" stroke-linejoin="round"/>
        <path d="M1136.39 939H1109.61C1108.12 939 1106.69 938.393 1105.64 937.313C1104.59 936.233 1104 934.768 1104 933.24V928.76C1104 927.232 1104.59 925.767 1105.64 924.687C1106.69 923.607 1108.12 923 1109.61 923H1136.39C1137.88 923 1139.31 923.607 1140.36 924.687C1141.41 925.767 1142 927.232 1142 928.76V933.24C1142 934.768 1141.41 936.233 1140.36 937.313C1139.31 938.393 1137.88 939 1136.39 939Z" fill="white"/>
        <path d="M1110.02 932.795C1110.02 932.014 1110.32 931.266 1110.86 930.713C1111.4 930.161 1112.13 929.851 1112.89 929.851H1142V928.76C1142 927.232 1141.41 925.767 1140.36 924.687C1139.31 923.607 1137.88 923 1136.39 923H1109.61C1108.12 923 1106.69 923.607 1105.64 924.687C1104.59 925.767 1104 927.232 1104 928.76V933.24C1104 934.768 1104.59 936.233 1105.64 937.313C1106.69 938.393 1108.12 939 1109.61 939H1110.02V932.795Z" fill="#D8D8D8"/>
        <path d="M1136.39 939H1109.61C1108.12 939 1106.69 938.393 1105.64 937.313C1104.59 936.233 1104 934.768 1104 933.24V928.76C1104 927.232 1104.59 925.767 1105.64 924.687C1106.69 923.607 1108.12 923 1109.61 923H1136.39C1137.88 923 1139.31 923.607 1140.36 924.687C1141.41 925.767 1142 927.232 1142 928.76V933.24C1142 934.768 1141.41 936.233 1140.36 937.313C1139.31 938.393 1137.88 939 1136.39 939Z" stroke="#1D628B" stroke-width="8" stroke-miterlimit="10" stroke-linecap="round" stroke-linejoin="round"/>
        <path d="M1091.01 853H1061.99C1058.68 853 1056 850.333 1056 847.042V817.958C1056 814.667 1058.68 812 1061.99 812H1079.61C1086.57 812 1092.49 817.058 1093.53 823.901L1096.93 846.147C1097.48 849.753 1094.68 853 1091.01 853Z" fill="#FDC858"/>
        <path opacity="0.56" d="M1068.28 825.088C1068.28 821.798 1070.97 819.131 1074.29 819.131H1091.97L1092 819.132C1089.56 814.835 1084.92 812 1079.69 812H1062.01C1058.69 812 1056 814.667 1056 817.958V847.042C1056 850.333 1058.69 853 1062.01 853H1068.28L1068.28 825.088Z" fill="#FDC858"/>
        <path d="M1091.01 853H1061.99C1058.68 853 1056 850.333 1056 847.042V817.958C1056 814.667 1058.68 812 1061.99 812H1079.61C1086.57 812 1092.49 817.058 1093.53 823.901L1096.93 846.147C1097.48 849.753 1094.68 853 1091.01 853Z" stroke="#1D628B" stroke-width="8" stroke-miterlimit="10" stroke-linecap="round" stroke-linejoin="round"/>
        <path d="M1036.01 853H971.988C968.681 853 966 850.202 966 846.752V816.248C966 812.798 968.681 810 971.988 810H1036.01C1039.32 810 1042 812.798 1042 816.248V846.752C1042 847.572 1041.85 848.385 1041.54 849.143C1041.24 849.901 1040.8 850.59 1040.25 851.17C1039.69 851.75 1039.03 852.211 1038.3 852.525C1037.58 852.839 1036.8 853 1036.01 853Z" fill="#FDC858"/>
        <path opacity="0.56" d="M977.612 822.928C977.612 819.477 980.293 816.68 983.599 816.68H1042V816.248C1042 812.798 1039.32 810 1036.01 810H971.987C968.681 810 966 812.798 966 816.248V846.752C966 850.202 968.681 853 971.987 853H977.612V822.928Z" fill="#FDC858"/>
        <path d="M1036.01 853H971.988C968.681 853 966 850.202 966 846.752V816.248C966 812.798 968.681 810 971.988 810H1036.01C1039.32 810 1042 812.798 1042 816.248V846.752C1042 847.572 1041.85 848.385 1041.54 849.143C1041.24 849.901 1040.8 850.59 1040.25 851.17C1039.69 851.75 1039.03 852.211 1038.3 852.525C1037.58 852.839 1036.8 853 1036.01 853Z" stroke="#1D628B" stroke-width="8" stroke-miterlimit="10" stroke-linecap="round" stroke-linejoin="round"/>
        <path d="M937.017 853H877.986C874.687 853 872.298 849.236 873.187 845.438L879.992 816.353C880.594 813.779 882.555 812 884.79 812H937.017C939.769 812 942 814.667 942 817.958V847.042C941.999 850.333 939.769 853 937.017 853Z" fill="#FDC858"/>
        <path opacity="0.56" d="M884.224 851.601L891.028 822.516C891.63 819.943 893.592 818.163 895.827 818.163H942V817.958C942 814.667 939.769 812 937.017 812H884.79C882.555 812 880.593 813.779 879.991 816.353L873.187 845.438C872.299 849.236 874.687 853 877.986 853H884.041C884.055 852.539 884.114 852.07 884.224 851.601Z" fill="#FDC858"/>
        <path d="M937.017 853H877.986C874.687 853 872.298 849.236 873.187 845.438L879.992 816.353C880.594 813.779 882.555 812 884.79 812H937.017C939.769 812 942 814.667 942 817.958V847.042C941.999 850.333 939.769 853 937.017 853Z" stroke="#1D628B" stroke-width="8" stroke-miterlimit="10" stroke-linecap="round" stroke-linejoin="round"/>
        <path opacity="0.48" d="M944 798C951.18 798 957 803.758 957 810.86V929" stroke="#523160" stroke-width="2" stroke-miterlimit="10" stroke-linecap="round" stroke-linejoin="round"/>
        <path d="M927 868H945.869M1024.91 867H1041" stroke="#1D628B" stroke-width="8" stroke-miterlimit="10" stroke-linecap="round" stroke-linejoin="round"/>
        <path d="M1134.21 910H1132V851H1134.21C1137.96 851 1141 854.321 1141 858.417V902.583C1141 906.68 1137.96 910 1134.21 910Z" fill="#D8D8D8"/>
        <path d="M1104 817H1111.6M1107.16 827.864H1114.76M1110.12 838.727H1117.72M1111.4 849.59H1119M1133.47 910H1131.02V849.59H1133.47C1137.63 849.59 1141 852.99 1141 857.184V902.406C1141 906.601 1137.63 910 1133.47 910Z" stroke="#1D628B" stroke-width="8" stroke-miterlimit="10" stroke-linecap="round" stroke-linejoin="round"/>
        <path d="M1019.94 933H939.063C935.715 933 933 930.314 933 927C933 923.686 935.715 921 939.063 921H1019.94C1023.29 921 1026 923.686 1026 927C1026 930.314 1023.28 933 1019.94 933Z" fill="white"/>
        <path d="M1019.94 933H939.063C935.715 933 933 930.314 933 927C933 923.686 935.715 921 939.063 921H1019.94C1023.29 921 1026 923.686 1026 927C1026 930.314 1023.28 933 1019.94 933Z" fill="white"/>
        <path d="M933 921H1026V927H933V921Z" fill="#D8D8D8"/>
        <path d="M1019.94 933H939.063C935.715 933 933 930.314 933 927C933 923.686 935.715 921 939.063 921H1019.94C1023.29 921 1026 923.686 1026 927C1026 930.314 1023.28 933 1019.94 933Z" stroke="#1D628B" stroke-width="8" stroke-miterlimit="10" stroke-linecap="round" stroke-linejoin="round"/>
        <path d="M890 805.891L902.091 793.59M900.279 807L916.601 790.451M984.434 804.441L996.525 792.14M994.713 805.55L1011.03 789M1063 805.666L1073 795.494M1071.5 806.583L1085 792.898" stroke="#1D628B" stroke-width="4" stroke-miterlimit="10" stroke-linecap="round" stroke-linejoin="round"/>
        <path d="M1309.54 875.105L1361.01 752.986C1362.13 750.338 1365.87 750.338 1366.99 752.986L1418.46 875.105C1424.62 889.723 1411.51 905 1392.8 905H1335.2C1316.49 905 1303.38 889.723 1309.54 875.105Z" fill="#FDC858"/>
        <path d="M1656.1 899.453L1692.87 811.432C1693.66 809.523 1696.34 809.523 1697.13 811.432L1733.9 899.453C1738.3 909.988 1728.93 921 1715.57 921H1674.43C1661.07 921 1651.7 909.988 1656.1 899.453Z" fill="#FDC858"/>
        <path d="M1309.54 875.105L1361.01 752.986C1362.13 750.338 1365.87 750.338 1366.99 752.986L1418.46 875.105C1424.62 889.723 1411.51 905 1392.8 905H1335.2C1316.49 905 1303.38 889.723 1309.54 875.105Z" fill="#FDC858"/>
        <path d="M1656.1 899.453L1692.87 811.432C1693.66 809.523 1696.34 809.523 1697.13 811.432L1733.9 899.453C1738.3 909.988 1728.93 921 1715.57 921H1674.43C1661.07 921 1651.7 909.988 1656.1 899.453Z" fill="#FDC858"/>
        <path opacity="0.56" d="M1334.54 880.847L1371 763.382L1366.64 752.986C1365.53 750.338 1361.81 750.338 1360.7 752.986L1309.53 875.105C1303.4 889.723 1316.44 905 1335.04 905H1339.36C1334 900.384 1331.88 892.685 1334.54 880.847Z" fill="#FDC858"/>
        <path opacity="0.56" d="M1673.96 903.591L1700 818.925L1696.89 811.432C1696.1 809.523 1693.44 809.523 1692.64 811.432L1656.09 899.453C1651.72 909.989 1661.03 921 1674.32 921H1677.4C1673.57 917.673 1672.05 912.124 1673.96 903.591Z" fill="#FDC858"/>
        <path d="M1363.5 960V775M1378.35 800.736L1363.5 815.016L1348.65 800.736M1381.18 827.905L1363.5 844.911L1345.82 827.905M1393 858.815L1363.5 882.417L1334 858.815" stroke="#1D628B" stroke-width="8" stroke-miterlimit="10" stroke-linecap="round" stroke-linejoin="round"/>
        <path d="M1695 960V827M1705.57 845.502L1695 855.768L1684.43 845.502M1707.58 865.035L1695 877.26L1682.42 865.035M1716 887.256L1695 904.224L1674 887.256" stroke="#1D628B" stroke-width="8" stroke-miterlimit="10" stroke-linecap="round" stroke-linejoin="round"/>
        <path d="M769.758 307L755.379 321.481L741 307M876.516 325.779L862.137 340.26L847.758 325.779M1104 403.519L1089.62 418L1075.24 403.519" stroke="#4589B0" stroke-width="8" stroke-miterlimit="10" stroke-linecap="round" stroke-linejoin="round"/>
        <path d="M1461.76 307L1447.38 321.481L1433 307M1568.52 325.779L1554.14 340.26L1539.76 325.779M1796 403.519L1781.62 418L1767.24 403.519" stroke="#4589B0" stroke-width="8" stroke-miterlimit="10" stroke-linecap="round" stroke-linejoin="round"/>
        <path d="M1566.58 304.859C1575.17 292.557 1589.37 284.515 1605.45 284.515C1609.16 284.515 1612.77 284.958 1616.24 285.769C1628.21 272.316 1645.6 263.843 1664.97 263.843C1698.22 263.843 1725.66 288.817 1729.79 321.125C1730.54 321.079 1731.29 321.01 1732.05 321.01C1752.46 321.01 1769 337.644 1769 358.164C1769 359.495 1768.92 360.807 1768.79 362.099H1575.3M1413.19 377.847H1249.75M1300.82 420H1261.15M1346.22 396.458H1272.8M928.147 150H804.519M861.286 179.595H714.474M394.186 284.609C394.074 283.22 394 281.819 394 280.402C394 252.232 416.71 229.396 444.725 229.396C455.127 229.383 465.28 232.602 473.794 238.613C479.874 217.295 499.39 201.69 522.544 201.69C526.514 201.69 530.371 202.163 534.077 203.03C546.871 188.651 565.459 179.595 586.156 179.595C621.698 179.595 651.019 206.285 655.43 240.816C656.234 240.766 657.033 240.694 657.848 240.694C679.657 240.694 697.337 258.472 697.337 280.402C697.337 281.825 697.255 283.226 697.111 284.609H394.186Z" stroke="#4589B0" stroke-width="7" stroke-miterlimit="10" stroke-linecap="round" stroke-linejoin="round"/>
    </g>
    <defs>
        <clipPath id="clip0_1_3">
            <rect width="1980" height="1080" fill="white"/>
        </clipPath>
    </defs>
</svg>
