<svg width="18" height="24" viewBox="0 0 18 24" fill="none" xmlns="http://www.w3.org/2000/svg">
    <path d="M16.1775 4.005C14.6288 1.49625 11.9475 0 9.00005 0C6.05255 0 3.3713 1.49625 1.8263 4.005C0.273797 6.51 0.138797 9.5775 1.45505 12.2137C1.4663 12.2325 1.47755 12.2513 1.48505 12.27L8.2538 23.58C8.4113 23.8388 8.6963 24 9.00005 24C9.1496 24.0004 9.29669 23.9619 9.42686 23.8882C9.55703 23.8146 9.66582 23.7084 9.74255 23.58L16.5113 12.27C16.5225 12.2513 16.5338 12.2325 16.5413 12.2137C17.865 9.5775 17.7225 6.50625 16.1775 4.005ZM5.2088 7.95C5.2088 5.86125 6.9113 4.15875 9.00005 4.15875C11.0888 4.15875 12.7913 5.86125 12.7913 7.95C12.7913 10.0388 11.0888 11.7413 9.00005 11.7413C6.9113 11.7413 5.2088 10.0425 5.2088 7.95Z" fill="#1E575A"/>
</svg>
