<svg width="24" height="24" viewBox="0 0 24 24" fill="none" xmlns="http://www.w3.org/2000/svg">
    <g clip-path="url(#clip0_501_41)">
        <path d="M3.375 22.125V19.125H9.8475C10.0512 19.1252 10.2512 19.0702 10.4261 18.9659C10.6011 18.8615 10.7445 18.7118 10.8412 18.5325C10.9451 18.3421 10.9905 18.1253 10.9718 17.9092C10.9531 17.6931 10.8712 17.4873 10.7362 17.3175L8.7825 15.375L10.7362 13.4325C10.8711 13.2627 10.953 13.0569 10.9717 12.8408C10.9903 12.6247 10.945 12.408 10.8412 12.2175C10.7445 12.0382 10.6011 11.8885 10.4261 11.7841C10.2512 11.6798 10.0512 11.6248 9.8475 11.625H3.375C3.37411 11.3269 3.2553 11.0413 3.04451 10.8305C2.83373 10.6197 2.54809 10.5009 2.25 10.5H1.875C1.57691 10.5009 1.29127 10.6197 1.08049 10.8305C0.869703 11.0413 0.75089 11.3269 0.75 11.625V22.125C0.75089 22.4231 0.869703 22.7087 1.08049 22.9195C1.29127 23.1303 1.57691 23.2491 1.875 23.25H2.25C2.54809 23.2491 2.83373 23.1303 3.04451 22.9195C3.2553 22.7087 3.37411 22.4231 3.375 22.125Z" fill="#1E575A"/>
        <path d="M4.5 23.25C4.70711 23.25 4.875 23.0821 4.875 22.875C4.875 22.6679 4.70711 22.5 4.5 22.5C4.29289 22.5 4.125 22.6679 4.125 22.875C4.125 23.0821 4.29289 23.25 4.5 23.25Z" fill="#1E575A"/>
        <path d="M19.83 16.4062H18.645C18.5558 16.2106 18.4123 16.0446 18.2314 15.9283C18.0506 15.812 17.84 15.7501 17.625 15.7501C17.41 15.7501 17.1994 15.812 17.0186 15.9283C16.8377 16.0446 16.6942 16.2106 16.605 16.4062H15.8925C15.159 16.4062 14.4556 16.1149 13.9369 15.5962C13.4183 15.0776 13.1269 14.3741 13.1269 13.6406C13.1269 12.9071 13.4183 12.2037 13.9369 11.685C14.4556 11.1664 15.159 10.875 15.8925 10.875H16.5C16.5995 10.875 16.6948 10.8355 16.7652 10.7652C16.8355 10.6948 16.875 10.5995 16.875 10.5C16.875 10.4005 16.8355 10.3052 16.7652 10.2348C16.6948 10.1645 16.5995 10.125 16.5 10.125H15.8925C15.4308 10.125 14.9737 10.2159 14.5471 10.3926C14.1206 10.5693 13.733 10.8282 13.4066 11.1547C13.0801 11.4812 12.8212 11.8687 12.6445 12.2953C12.4678 12.7218 12.3769 13.1789 12.3769 13.6406C12.3769 14.1023 12.4678 14.5595 12.6445 14.986C12.8212 15.4125 13.0801 15.8001 13.4066 16.1265C13.733 16.453 14.1206 16.712 14.5471 16.8886C14.9737 17.0653 15.4308 17.1562 15.8925 17.1562H16.5413C16.6023 17.3974 16.742 17.6114 16.9383 17.7642C17.1346 17.917 17.3762 18 17.625 18C17.8738 18 18.1154 17.917 18.3117 17.7642C18.508 17.6114 18.6477 17.3974 18.7087 17.1562H19.83C20.5383 17.1578 21.2171 17.4402 21.7175 17.9414C22.218 18.4425 22.4994 19.1217 22.5 19.83C22.4997 20.538 22.2183 21.217 21.7176 21.7176C21.217 22.2183 20.538 22.4997 19.83 22.5H6C5.90054 22.5 5.80516 22.5395 5.73484 22.6098C5.66451 22.6802 5.625 22.7755 5.625 22.875C5.625 22.9745 5.66451 23.0698 5.73484 23.1402C5.80516 23.2105 5.90054 23.25 6 23.25H19.83C20.7375 23.25 21.6079 22.8895 22.2496 22.2478C22.8914 21.606 23.2519 20.7357 23.2519 19.8281C23.2519 18.9206 22.8914 18.0502 22.2496 17.4085C21.6079 16.7668 20.7375 16.4062 19.83 16.4062ZM18.75 0.75C17.6958 0.751111 16.6755 1.12228 15.867 1.79877C15.0585 2.47525 14.5132 3.41411 14.3261 4.45155C14.1391 5.489 14.3222 6.55919 14.8435 7.47543C15.3649 8.39167 16.1913 9.09581 17.1788 9.465L17.8425 10.4062C17.9462 10.5499 18.0826 10.6669 18.2404 10.7476C18.3981 10.8282 18.5728 10.8703 18.75 10.8703C18.9272 10.8703 19.1019 10.8282 19.2596 10.7476C19.4174 10.6669 19.5538 10.5499 19.6575 10.4062L20.3212 9.465C21.3087 9.09581 22.1351 8.39167 22.6565 7.47543C23.1778 6.55919 23.3609 5.489 23.1739 4.45155C22.9868 3.41411 22.4415 2.47525 21.633 1.79877C20.8245 1.12228 19.8042 0.751111 18.75 0.75ZM18.75 7.875C18.2308 7.875 17.7233 7.72105 17.2916 7.43261C16.8599 7.14417 16.5235 6.7342 16.3248 6.25454C16.1261 5.77489 16.0742 5.24709 16.1754 4.73789C16.2767 4.22869 16.5267 3.76096 16.8938 3.39384C17.261 3.02673 17.7287 2.77672 18.2379 2.67544C18.7471 2.57415 19.2749 2.62614 19.7545 2.82482C20.2342 3.0235 20.6442 3.35995 20.9326 3.79163C21.221 4.22331 21.375 4.73082 21.375 5.25C21.3742 5.94595 21.0974 6.61317 20.6053 7.10528C20.1132 7.59739 19.4459 7.87421 18.75 7.875Z" fill="#1E575A"/>
    </g>
    <defs>
        <clipPath id="clip0_501_41">
            <rect width="24" height="24" fill="white"/>
        </clipPath>
    </defs>
</svg>
