<svg width="24" height="24" viewBox="0 0 24 24" fill="none" xmlns="http://www.w3.org/2000/svg">
    <g clip-path="url(#clip0_236_37)">
        <path d="M1.38281 22.6225L2.88278 17.1688C1.95521 15.5678 1.46825 13.7515 1.47105 11.9033C1.47367 6.09923 6.21726 1.37964 12.0459 1.37964C13.4351 1.37971 14.8106 1.65227 16.0939 2.18176C17.3772 2.71125 18.5432 3.48729 19.5252 4.46554C20.5071 5.44379 21.2859 6.60509 21.817 7.88308C22.348 9.16107 22.621 10.5307 22.6202 11.9138C22.6202 17.7178 17.874 22.4384 12.0459 22.4384H12.0412C10.2759 22.4385 8.53878 21.9985 6.98825 21.1584L1.38281 22.6225Z" fill="url(#paint0_linear_236_37)"/>
        <g filter="url(#filter0_d_236_37)">
            <path d="M1 23L2.55406 17.3528C1.59371 15.6954 1.08954 13.8151 1.09244 11.9017C1.09244 5.88848 6.00828 1 12.046 1C13.4847 1.00014 14.9094 1.28244 16.2386 1.83079C17.5678 2.37914 18.7754 3.18279 19.7926 4.19586C20.8098 5.20892 21.6166 6.41156 22.1669 7.73508C22.7173 9.0586 23.0003 10.4771 23 11.9095C22.9974 17.9228 18.0831 22.8112 12.046 22.8112H12.0397C10.211 22.8111 8.41149 22.3549 6.80554 21.4841L1 23ZM7.07601 19.5102L7.40846 19.7069C8.81142 20.5338 10.4119 20.9702 12.0423 20.9701H12.046C17.0642 20.9701 21.1482 16.9047 21.1503 11.9085C21.1511 9.50454 20.1928 7.19871 18.4861 5.49817C16.7794 3.79763 14.4642 2.84167 12.0496 2.84057C7.02769 2.84057 2.94376 6.90498 2.94166 11.9012C2.93903 13.6071 3.42156 15.2789 4.33343 16.7233L4.55034 17.0663L3.63019 20.4128L7.07601 19.5102Z" fill="url(#paint1_linear_236_37)"/>
        </g>
        <path fill-rule="evenodd" clip-rule="evenodd" d="M9.30869 7.34309C9.10387 6.88923 8.88854 6.88034 8.69316 6.87249C8.5356 6.8657 8.35073 6.86622 8.16797 6.86622C8.02933 6.8699 7.89296 6.90209 7.76742 6.96076C7.64188 7.01943 7.52988 7.10331 7.43847 7.20714C7.18742 7.48009 6.47998 8.13893 6.47998 9.47961C6.47998 10.8203 7.46105 12.116 7.5976 12.298C7.73415 12.4799 9.49094 15.3187 12.2719 16.411C14.5827 17.3188 15.0554 17.1384 15.5564 17.0908C16.0575 17.0432 17.1756 16.4314 17.4036 15.7951C17.6315 15.1587 17.632 14.6139 17.5611 14.4999C17.4902 14.3859 17.3106 14.3179 17.0359 14.1819C16.7612 14.046 15.4167 13.3861 15.1662 13.2957C14.9157 13.2052 14.7324 13.1592 14.5502 13.4321C14.3679 13.7051 13.8432 14.3179 13.6836 14.4999C13.5239 14.6818 13.3643 14.7048 13.0906 14.5684C12.817 14.4319 11.9352 14.1443 10.8895 13.2162C10.076 12.4935 9.52665 11.602 9.36646 11.3291C9.20628 11.0561 9.34966 10.9108 9.48674 10.7732C9.60963 10.6509 9.76037 10.4548 9.89744 10.2958C10.0345 10.1369 10.0797 10.0229 10.1705 9.84145C10.2614 9.66001 10.2162 9.50053 10.148 9.36406C10.0797 9.22758 9.55186 7.88167 9.30869 7.34309Z" fill="white"/>
    </g>
    <defs>
        <filter id="filter0_d_236_37" x="-0.375" y="-0.375" width="24.75" height="24.75" filterUnits="userSpaceOnUse" color-interpolation-filters="sRGB">
            <feFlood flood-opacity="0" result="BackgroundImageFix"/>
            <feColorMatrix in="SourceAlpha" type="matrix" values="0 0 0 0 0 0 0 0 0 0 0 0 0 0 0 0 0 0 127 0" result="hardAlpha"/>
            <feOffset/>
            <feGaussianBlur stdDeviation="0.6875"/>
            <feColorMatrix type="matrix" values="0 0 0 0 0 0 0 0 0 0 0 0 0 0 0 0 0 0 0.15 0"/>
            <feBlend mode="normal" in2="BackgroundImageFix" result="effect1_dropShadow_236_37"/>
            <feBlend mode="normal" in="SourceGraphic" in2="effect1_dropShadow_236_37" result="shape"/>
        </filter>
        <linearGradient id="paint0_linear_236_37" x1="12.0013" y1="22.6209" x2="12.0013" y2="1.38173" gradientUnits="userSpaceOnUse">
            <stop stop-color="#20B038"/>
            <stop offset="1" stop-color="#60D66A"/>
        </linearGradient>
        <linearGradient id="paint1_linear_236_37" x1="12.0003" y1="23" x2="12.0003" y2="0.998955" gradientUnits="userSpaceOnUse">
            <stop stop-color="#F9F9F9"/>
            <stop offset="1" stop-color="white"/>
        </linearGradient>
        <clipPath id="clip0_236_37">
            <rect width="24" height="24" fill="white"/>
        </clipPath>
    </defs>
</svg>
